PathFileType	4	(X/Y/Z)	/Users/niels/Desktop/University/Third Semester/Perception and Action/Exam/Gymnastics Motion Tracking/Code for Gym Tracking/Analyzed Data/Webcam_Backflip/id6_4_baseline_Sports2D/id6_4_baseline_Sports2D_px_person00.trc
DataRate	CameraRate	NumFrames	NumMarkers	Units	OrigDataRate	OrigDataStartFrame	OrigNumFrames
29.81132075471698	29.81132075471698	9	22	m	29.81132075471698	0	159
Frame#	Time	Hip			RHip			RKnee			RAnkle			RBigToe			RSmallToe			RHeel			LHip			LKnee			LAnkle			LBigToe			LSmallToe			LHeel			Neck			Head			Nose			RShoulder			RElbow			RWrist			LShoulder			LElbow			LWrist		
		X1	Y1	Z1	X2	Y2	Z2	X3	Y3	Z3	X4	Y4	Z4	X5	Y5	Z5	X6	Y6	Z6	X7	Y7	Z7	X8	Y8	Z8	X9	Y9	Z9	X10	Y10	Z10	X11	Y11	Z11	X12	Y12	Z12	X13	Y13	Z13	X14	Y14	Z14	X15	Y15	Z15	X16	Y16	Z16	X17	Y17	Z17	X18	Y18	Z18	X19	Y19	Z19	X20	Y20	Z20	X21	Y21	Z21	X22	Y22	Z22
0	0.0	0.9872815184431498	-0.5809874734279291	0.0	0.9890284696267928	-0.5792415551924717	0.0	0.9942796595861152	-0.6806637746609546	0.0	0.975040700470407	-0.7750920635418946	0.0	1.0047778191424028	-0.7960744697563747	0.0	0.9995307616352485	-0.797822250785972	0.0	0.9680429876176759	-0.7908300371647972	0.0	0.989031016613445	-0.577493201949512	0.0	0.9942807610906607	-0.6789151394591237	0.0	0.9767883720381696	-0.7733425744272171	0.0	1.0065236897553407	-0.7960685663148234	0.0	1.0012772300168018	-0.7908231684171283	0.0	0.9680433320475731	-0.7855821721822981	0.0	0.9995147832752959	-0.4480908353579707	0.0	1.0257507298569717	-0.3729043677069383	0.0	1.0309965651112305	-0.4096205149813014	0.0	1.0012653690058841	-0.4498488061567823	0.0	1.0432012262105912	-0.3956924837181159	0.0	1.071152261091912	-0.33279878612756775	0.0	0.9925160045817458	-0.44985013961755466	0.0	1.032714549520678	-0.3992004056105121	0.0	1.0606633170946507	-0.3485432353303043	0.0
1	0.03354430379746835	0.9862986173622235	-0.5795307827668804	0.0	0.9879790139663057	-0.5779449583048442	0.0	0.9949865124199192	-0.6793702496059638	0.0	0.9755831750904524	-0.7743250511710525	0.0	1.005299023101986	-0.7956833538138285	0.0	1.0003109757750586	-0.7972140523908905	0.0	0.9681537450844636	-0.7904405355620557	0.0	0.9874152180133139	-0.5760120962708719	0.0	0.9943687158619908	-0.6782102152005961	0.0	0.9763683109770641	-0.7727174461242777	0.0	1.0061441545682166	-0.7956193396972183	0.0	1.001228730391309	-0.7908740416425967	0.0	0.9677057868064008	-0.7847681993875633	0.0	1.0012993093394695	-0.4469911949117132	0.0	1.0293797479388203	-0.3732248943577422	0.0	1.0324782401622732	-0.4101477275628473	0.0	1.0027650663190466	-0.4490445929274389	0.0	1.0446743921075756	-0.3930833295876001	0.0	1.072460665719061	-0.3315135685628832	0.0	0.9947881129088176	-0.44788802294002555	0.0	1.0340241399032055	-0.39692085007645117	0.0	1.0630225576638646	-0.34553215051568725	0.0
2	0.0670886075949367	0.9850004001726116	-0.5780520168802344	0.0	0.986830950054944	-0.576741535004829	0.0	0.9954738157600942	-0.6781600632261214	0.0	0.9761003743688238	-0.7736838221966611	0.0	1.0057200069245373	-0.7952458607121687	0.0	1.0008245627019754	-0.7966769336141376	0.0	0.9682093130749526	-0.7900521331251041	0.0	0.9853560707855578	-0.5745712766555204	0.0	0.9941480503408252	-0.6774210935925147	0.0	0.9759915421787766	-0.7721815641336282	0.0	1.005613297336807	-0.7953269652674475	0.0	1.0009910039409453	-0.7909166639683739	0.0	0.9674153458946299	-0.7840248797101921	0.0	1.002984039473716	-0.44585663915818463	0.0	1.0326108080013447	-0.3735484512421032	0.0	1.0341952054286212	-0.41043220097783306	0.0	1.0041320266409968	-0.44845245323166194	0.0	1.0469456224393876	-0.39154232790776455	0.0	1.0754333089868988	-0.3315687853630166	0.0	0.9968176915718551	-0.44625993393083674	0.0	1.036419618603071	-0.39542812493902957	0.0	1.06714828509828	-0.34351809516722037	0.0
3	0.10063291139240506	0.9832310491972884	-0.5766173188586989	0.0	0.9854660382783651	-0.5757700312175937	0.0	0.9955332849252706	-0.6771455298238088	0.0	0.9765463696440364	-0.7732142926583829	0.0	1.0059425514489926	-0.794709545491197	0.0	1.000941686789327	-0.796227633017363	0.0	0.9681793672611514	-0.7895856929366557	0.0	0.9826807258853277	-0.573294466319592	0.0	0.9934210574046566	-0.6765962088176968	0.0	0.9756554131973597	-0.771718443653706	0.0	1.0048542779884553	-0.7951622445897751	0.0	1.0004585936431474	-0.7908664323219332	0.0	0.9671381612372515	-0.7832834608555922	0.0	1.0045245140308234	-0.44490394065823397	0.0	1.0351486620326522	-0.37410172225964855	0.0	1.0362350563229104	-0.41059932483696204	0.0	1.0053199246692166	-0.4484059858847782	0.0	1.050554072753326	-0.3919916430907293	0.0	1.0811510082854507	-0.33415225018317085	0.0	0.998430072002106	-0.4453226600192798	0.0	1.0402990088633977	-0.39550623632542914	0.0	1.0741240625123594	-0.3437018400719413	0.0
4	0.1341772151898734	0.9810421215913171	-0.5753929725029081	0.0	0.9837631730718085	-0.575170736817523	0.0	0.9950121353023493	-0.676423519965183	0.0	0.9768713747671246	-0.7729101773153139	0.0	1.0059346180487792	-0.7940862287098356	0.0	1.0007182026401074	-0.7958730850730615	0.0	0.9680734865351872	-0.7889600854367186	0.0	0.9795711761541989	-0.57236335905224	0.0	0.9921705181393268	-0.6758808468140075	0.0	0.9753628565866403	-0.7712390780276501	0.0	1.0039377413679351	-0.7949478421436585	0.0	0.9996926783770997	-0.7906231241909498	0.0	0.9668143140435321	-0.7824333396811372	0.0	1.0059313231434166	-0.4445062599658878	0.0	1.0368208922534679	-0.3752348704071904	0.0	1.03849701150926	-0.4110407791204387	0.0	1.0063546569765578	-0.44921581691273427	0.0	1.0556052235699598	-0.39505871936544484	0.0	1.0898050840775357	-0.34003786522248963	0.0	0.9995795743335484	-0.4453727754241515	0.0	1.0454469312181065	-0.39780058028905846	0.0	1.084047670093474	-0.34718715408260314	0.0
5	0.16772151898734178	0.9786171257952031	-0.5745972970394059	0.0	0.9816390804752418	-0.57499860051553	0.0	0.9938805222904894	-0.6760511879490249	0.0	0.9770618069438038	-0.7727991071109686	0.0	1.0058196567268145	-0.7935136412137802	0.0	1.0003481138051538	-0.795693792279558	0.0	0.9679371732638232	-0.7882552244654981	0.0	0.9764238993946408	-0.571907350013326	0.0	0.9905434904621178	-0.6754169391031193	0.0	0.9751811702209975	-0.7707345280714738	0.0	1.0031228349166668	-0.7945650154439613	0.0	0.9989683417149648	-0.79019914844042	0.0	0.96648331173702	-0.7815462146729426	0.0	1.0072803569833795	-0.4448637533365386	0.0	1.0376310576894499	-0.37709766794382277	0.0	1.0407876488911276	-0.4120178090543335	0.0	1.007306405217763	-0.4509140366701273	0.0	1.061743532614764	-0.40108690683827575	0.0	1.1007860672211396	-0.3496675170993452	0.0	1.0004200456123122	-0.44645826598839405	0.0	1.0515316748706316	-0.40273068390440214	0.0	1.0961713187319524	-0.3547392904293255	0.0
6	0.20126582278481012	0.9761833726835022	-0.5744150246060934	0.0	0.9791040924647185	-0.5751960377277832	0.0	0.9922783456825918	-0.6760581909158122	0.0	0.9771591198757102	-0.7729521108544599	0.0	1.0058320749720813	-0.793181855468889	0.0	1.000046609052313	-0.795801005652897	0.0	0.9678275444848842	-0.7877159443274233	0.0	0.9736381281277915	-0.5719193493182884	0.0	0.9887665811816148	-0.6752900497942916	0.0	0.9751926403067656	-0.7703439481401465	0.0	1.0027713547830701	-0.7940794551938988	0.0	0.9986913564816317	-0.7897343082469827	0.0	0.9662844494258157	-0.7809167818324197	0.0	1.0086922439470958	-0.4458468513848714	0.0	1.0378154693316968	-0.3794514716787693	0.0	1.0429390284249551	-0.41347375706110623	0.0	1.0082947312535369	-0.4531785626638917	0.0	1.0682896500175851	-0.41009628491845035	0.0	1.112990637085591	-0.36326109952742547	0.0	1.0012805899535548	-0.44828967292178634	0.0	1.0582728245783586	-0.4104364142958794	0.0	1.1092059843147155	-0.36674680033728585	0.0
7	0.23481012658227846	0.9739218047435989	-0.574929173833076	0.0	0.976277679263233	-0.5756793501540948	0.0	0.9904695457126214	-0.6764455568235521	0.0	0.977203471501997	-0.7734266320995126	0.0	1.0061312691182522	-0.7931926364830164	0.0	0.9999311386708155	-0.7962190586457428	0.0	0.967770123042784	-0.7875763037603369	0.0	0.9714369076614076	-0.5723226723368092	0.0	0.9870572954678398	-0.6755230249581027	0.0	0.9753909645338045	-0.7702569969394893	0.0	1.003134401473445	-0.7936899124507342	0.0	0.9991261767322501	-0.789403562440117	0.0	0.9662958553551617	-0.7808648127837665	0.0	1.0102330999552949	-0.4472024973503877	0.0	1.0376998445987569	-0.3818376579964661	0.0	1.044820437707556	-0.41523090268755447	0.0	1.0094227942517884	-0.4555793842437933	0.0	1.074389650706615	-0.42181187180010443	0.0	1.1250267298360472	-0.3809483522759665	0.0	1.0024951322804125	-0.45049271690691267	0.0	1.0652059831688596	-0.4208543321606295	0.0	1.12158128510754	-0.3833485225862244	0.0
8	0.2683544303797468	0.971897896784791	-0.5760919820206252	0.0	0.9733618193152924	-0.5764363069109655	0.0	0.9887230188793391	-0.677183567543037	0.0	0.9771657207516488	-0.7742270376927615	0.0	1.006683331637906	-0.7935272266652592	0.0	0.9999823888984246	-0.7968767820025731	0.0	0.9677333146163277	-0.7879213402200624	0.0	0.9697968368970044	-0.5731017766677812	0.0	0.9855787370045541	-0.6761002985381774	0.0	0.97566114565399	-0.77059059050063	0.0	1.0041469787478299	-0.7936017167369801	0.0	1.0001429790069059	-0.789351949130651	0.0	0.9664331675649502	-0.7815206824783045	0.0	1.0118353570831755	-0.4487979102699778	0.0	1.03750011864528	-0.38392102536186107	0.0	1.0463140014899852	-0.41722065301882083	0.0	1.0106628038278738	-0.45789370061977785	0.0	1.0791335508134385	-0.43576588440599434	0.0	1.1353118786633534	-0.40275631569774595	0.0	1.0041733382579665	-0.4529165366272262	0.0	1.0715000909936945	-0.4337246301942173	0.0	1.1317290055196154	-0.40438302401906007	0.0
